<svg width="31" height="31" viewBox="0 0 31 31" fill="none" xmlns="http://www.w3.org/2000/svg">
<g id="Group 1">
<g id="Vector">
<path d="M24.8311 28.5015H2.83105V6.50146H15.0511C15.6033 6.50146 16.0511 6.05375 16.0511 5.50146C16.0511 4.94918 15.6033 4.50146 15.0511 4.50146H2.83105C2.30062 4.50146 1.79191 4.71218 1.41684 5.08725C1.04177 5.46232 0.831055 5.97103 0.831055 6.50146V28.5015C0.831055 29.0319 1.04177 29.5406 1.41684 29.9157C1.79191 30.2908 2.30062 30.5015 2.83105 30.5015H24.8311C25.3615 30.5015 25.8702 30.2908 26.2453 29.9157C26.6203 29.5406 26.8311 29.0319 26.8311 28.5015V16.5015C26.8311 15.9492 26.3833 15.5015 25.8311 15.5015C25.2788 15.5015 24.8311 15.9492 24.8311 16.5015V28.5015Z" fill="#CDCDCD"/>
</g>
<g id="Vector_2">
<path d="M30.3615 4.34165L26.9915 0.971653C26.8419 0.821684 26.6643 0.702697 26.4686 0.621511C26.273 0.540325 26.0633 0.498535 25.8515 0.498535C25.6397 0.498535 25.43 0.540325 25.2344 0.621511C25.0387 0.702697 24.8611 0.821684 24.7115 0.971653L11.6048 14.1548C11.2105 14.5515 10.9349 15.0504 10.8091 15.5954L9.8915 19.5717C9.84421 19.8048 9.84918 20.0456 9.90606 20.2766C9.96293 20.5076 10.0703 20.7231 10.2204 20.9077C10.3706 21.0922 10.5597 21.2412 10.7743 21.3439C10.9889 21.4466 11.2236 21.5005 11.4615 21.5017C11.5845 21.5152 11.7085 21.5152 11.8315 21.5017L15.8185 20.6221C16.3819 20.4978 16.8975 20.2136 17.3035 19.8038L30.3615 6.62165C30.5115 6.47209 30.6305 6.29441 30.7116 6.09879C30.7928 5.90317 30.8346 5.69345 30.8346 5.48165C30.8346 5.26985 30.7928 5.06014 30.7116 4.86451C30.6305 4.66889 30.5115 4.49121 30.3615 4.34165ZM15.6415 18.5817L11.9815 19.3917L12.8315 15.7617L23.1515 5.37165L25.9715 8.19165L15.6415 18.5817ZM27.1015 7.06165L24.2815 4.24165L25.8315 2.66165L28.6715 5.50165L27.1015 7.06165Z" fill="#CDCDCD"/>
</g>
</g>
</svg>
