<svg width="27" height="23" viewBox="0 0 27 23" fill="none" xmlns="http://www.w3.org/2000/svg">
<g id="Vector">
<path d="M20.167 2.49979L20.167 20.4998C20.1665 21.0301 19.9556 21.5385 19.5806 21.9134C19.2057 22.2884 18.6973 22.4993 18.167 22.4998L14.167 22.4998C13.6367 22.4993 13.1283 22.2884 12.7534 21.9134C12.3784 21.5385 12.1675 21.0301 12.167 20.4998L12.167 2.49979C12.1675 1.96952 12.3784 1.46112 12.7534 1.08616C13.1283 0.711202 13.6367 0.500318 14.167 0.499788L18.167 0.499787C18.6973 0.500318 19.2057 0.711202 19.5806 1.08616C19.9556 1.46112 20.1665 1.96952 20.167 2.49979ZM14.167 20.4998L18.167 20.4998L18.167 2.49979L14.167 2.49979L14.167 20.4998ZM14.167 2.49979L14.167 20.4998C14.1665 21.0301 13.9556 21.5384 13.5806 21.9134C13.2057 22.2883 12.6973 22.4992 12.167 22.4998L8.16699 22.4998C7.63672 22.4992 7.12832 22.2883 6.75336 21.9134C6.37841 21.5384 6.16752 21.03 6.16699 20.4998L6.16699 2.49977C6.16752 1.9695 6.3784 1.4611 6.75336 1.08614C7.12832 0.711181 7.63672 0.500299 8.16699 0.499769L12.167 0.499769C12.6973 0.500299 13.2057 0.711181 13.5806 1.08614C13.9556 1.4611 14.1665 1.96952 14.167 2.49979ZM8.16699 20.4998L12.167 20.4998L12.167 2.49979L8.16699 2.49977L8.16699 20.4998ZM8.16699 2.49977L8.16699 20.4998C8.16646 21.03 7.95558 21.5384 7.58062 21.9134C7.20566 22.2883 6.69726 22.4992 6.16699 22.4998L2.16699 22.4998C1.63672 22.4992 1.12832 22.2883 0.753363 21.9134C0.378405 21.5384 0.167522 21.03 0.166992 20.4998L0.166991 2.49977C0.167521 1.9695 0.378404 1.4611 0.753362 1.08614C1.12832 0.711182 1.63672 0.500299 2.16699 0.499769L6.16699 0.499769C6.69726 0.500299 7.20566 0.711181 7.58062 1.08614C7.95558 1.4611 8.16646 1.9695 8.16699 2.49977ZM2.16699 20.4998L6.16699 20.4998L6.16699 2.49977L2.16699 2.49977L2.16699 20.4998Z" fill="#CDCDCD"/>
<path d="M26.167 2.50001L26.167 20.5C26.1665 21.0303 25.9556 21.5387 25.5806 21.9136C25.2057 22.2886 24.6973 22.4995 24.167 22.5L20.167 22.5C19.6367 22.4995 19.1283 22.2886 18.7534 21.9136C18.3784 21.5387 18.1675 21.0301 18.167 20.4998L18.167 2.49979C18.1675 1.96952 18.3784 1.46134 18.7534 1.08638C19.1283 0.711423 19.6367 0.500541 20.167 0.500011L24.167 0.50001C24.6973 0.500541 25.2057 0.711423 25.5806 1.08638C25.9556 1.46134 26.1665 1.96974 26.167 2.50001ZM20.167 20.4998L24.167 20.5L24.167 2.50001L20.167 2.49979L20.167 20.4998Z" fill="#CDCDCD"/>
</g>
</svg>
