<svg width="25" height="29" viewBox="0 0 25 29" fill="none" xmlns="http://www.w3.org/2000/svg">
<path id="Vector" d="M5.80303 26.3462H19.7424V25.35C18.7667 24.5333 17.6864 23.9211 16.5015 23.5132C15.3167 23.1044 14.0737 22.9 12.7727 22.9C11.4717 22.9 10.2288 23.1044 9.04394 23.5132C7.85909 23.9211 6.77879 24.5333 5.80303 25.35V26.3462ZM2.81818 24.09C4.07273 22.8533 5.72776 21.8789 7.38933 21.1668C9.04998 20.4556 10.8444 20.1 12.7727 20.1C14.701 20.1 16.4959 20.4556 18.1575 21.1668C19.8182 21.8789 21.2 22.9556 22.4545 24.1923L22.5303 5.88462H2.81818V24.09ZM12.7727 17.3C11.4253 17.3 10.2753 16.8217 9.32273 15.865C8.3702 14.9083 7.89394 13.7533 7.89394 12.4C7.89394 11.0467 8.3702 9.89167 9.32273 8.935C10.2753 7.97833 11.4253 7.5 12.7727 7.5C14.1202 7.5 15.2702 7.97833 16.2227 8.935C17.1753 9.89167 17.6515 11.0467 17.6515 12.4C17.6515 13.7533 17.1753 14.9083 16.2227 15.865C15.2702 16.8217 14.1202 17.3 12.7727 17.3ZM12.7727 14.5C13.3535 14.5 13.847 14.2956 14.2531 13.8868C14.6601 13.4789 14.8636 12.9833 14.8636 12.4C14.8636 11.8167 14.6601 11.3211 14.2531 10.9132C13.847 10.5044 13.3535 10.3 12.7727 10.3C12.1919 10.3 11.6985 10.5044 11.2924 10.9132C10.8853 11.3211 10.6818 11.8167 10.6818 12.4C10.6818 12.9833 10.8853 13.4789 11.2924 13.8868C11.6985 14.2956 12.1919 14.5 12.7727 14.5ZM1.63087 28.5C1.08074 28.5 0.633917 28.0556 0.630889 27.5055L0.505536 4.73627C0.502483 4.18185 0.951085 3.73077 1.50552 3.73077H4.40909V1.5C4.40909 0.947716 4.85681 0.5 5.40909 0.5H6.19697C6.74925 0.5 7.19697 0.947715 7.19697 1.5V3.73077H18.3485V1.5C18.3485 0.947716 18.7962 0.5 19.3485 0.5H20.1641C20.7054 0.5 21.1485 0.930756 21.1637 1.47187L21.2273 3.73077H23.5C24.0523 3.73077 24.5 4.17848 24.5 4.73077V27.5C24.5 28.0523 24.0523 28.5 23.5 28.5L1.63087 28.5Z" fill="#CDCDCD"/>
</svg>
