<svg width="23" height="23" viewBox="0 0 23 23" fill="none" xmlns="http://www.w3.org/2000/svg">
<path id="Vector" d="M20.5 0.5H2.5C1.39543 0.5 0.5 1.39648 0.5 2.50105C0.5 2.52939 0.5 2.54928 0.5 2.55917V20.5592C0.5 21.6311 1.36998 22.5 2.44187 22.5C2.47009 22.5 2.48998 22.5 2.49999 22.5H20.5C20.51 22.5 20.5299 22.5 20.5581 22.5C21.63 22.5 22.5 21.6311 22.5 20.5592V2.55915C22.5 2.54925 22.5 2.52937 22.5 2.50104C22.5 1.39648 21.6046 0.5 20.5 0.5ZM13.5 20.5592H2.5V12.5591H13.5V20.5592ZM13.5 10.5591H2.5V2.55917L13.5 2.55915V10.5591ZM20.5 20.5592H15.5V2.55917H20.5V20.5592Z" fill="#CDCDCD"/>
</svg>
