<svg width="21" height="19" viewBox="0 0 21 19" fill="none" xmlns="http://www.w3.org/2000/svg">
<path id="Vector" d="M1.5 0.5H19.5C19.7652 0.5 20.0196 0.605357 20.2071 0.792893C20.3946 0.98043 20.5 1.23478 20.5 1.5V17.5C20.5 17.7652 20.3946 18.0196 20.2071 18.2071C20.0196 18.3946 19.7652 18.5 19.5 18.5H1.5C1.23478 18.5 0.98043 18.3946 0.792893 18.2071C0.605357 18.0196 0.5 17.7652 0.5 17.5V1.5C0.5 1.23478 0.605357 0.98043 0.792893 0.792893C0.98043 0.605357 1.23478 0.5 1.5 0.5V0.5ZM18.5 4.738L10.572 11.838L2.5 4.716V16.5H18.5V4.738ZM3.011 2.5L10.561 9.162L18.002 2.5H3.011Z" fill="#A8A8A8"/>
</svg>
